<?xml version="1.0"?>
<svg xmlns="http://www.w3.org/2000/svg" viewBox="0 0 22 19" >
  <path fill="#ffd700" d="m 4.1 13.2 c 2 0.6 3.3 2 3.3 2 s -1.9 0.6 -3.9 0 s -3.3 -2 -3.3 -2 s 1.9 -0.5 3.9 0"/>
  <path fill="#ffd700" d="M 2.9 9 c 1.2 1.5 1.5 3.4 1.5 3.4 s -1.7 -0.6 -2.9 -2.2 S 0 6.8 0 6.8 s 1.7 0.7 2.9 2.2 Z"/>
  <path fill="#ffd700" d="M 4 4.8 c 0.2 1.7 -0.4 3.1 -0.4 3.1 S 2.6 6.7 2.3 5 c -0.2 -1.7 0.5 -3.1 0.5 -3.1 S 3.7 3.1 4 4.8 Z"/>
  <path fill="#ffd700" d="M 6.9 3 c -0.5 1.5 -1.6 2.5 -1.6 2.5 s -0.3 -1.5 0.1 -3 C 5.9 1.1 7 0 7 0 s 0.4 1.5 -0.1 3 Z"/>
  <path fill="#ffd700" d="m 7.2 16.4 c 1.9 -0.3 3.4 0.3 3.4 0.3 s -1.4 1 -3.2 1.3 c -1.9 0.3 -3.4 -0.3 -3.4 -0.3 s 1.3 -1 3.2 -1.3"/>
  <path fill="#ffd700" d="m 17.9 13.2 c -2 0.6 -3.3 2 -3.3 2 s 1.9 0.6 3.9 0 s 3.3 -2 3.3 -2 s -1.9 -0.5 -3.9 0"/>
  <path fill="#ffd700" d="m 19 9 c -1.2 1.5 -1.5 3.4 -1.5 3.4 s 1.7 -0.6 2.9 -2.2 s 1.5 -3.4 1.5 -3.4 s -1.7 0.7 -2.9 2.2"/>
  <path fill="#ffd700" d="m 18 4.8 c -0.2 1.7 0.4 3.1 0.4 3.1 s 1 -1.2 1.2 -2.9 c 0.3 -1.7 -0.4 -3.1 -0.4 -3.1 s -0.9 1.2 -1.2 2.9"/>
  <path fill="#ffd700" d="M 15.1 3 c 0.5 1.5 1.6 2.5 1.6 2.5 s 0.3 -1.5 -0.1 -3 C 16.1 1.1 15 0 15 0 s -0.4 1.5 0.1 3 Z"/>
  <path fill="#ffd700" d="m 14.8 16.4 c -1.9 -0.3 -3.4 0.3 -3.4 0.3 s 1.4 1 3.2 1.3 c 1.9 0.3 3.4 -0.3 3.4 -0.3 s -1.3 -1 -3.2 -1.3"/>
  <path fill="#ffd700" d="M 11 2.7 L 12.4 7 H 17 l -3.7 2.7 l 1.4 4.3 l -3.7 -2.6 L 7.3 14 l 1.4 -4.3 L 5 7 h 4.6 Z"/>
</svg>
