<?xml version="1.0"?>
<svg xmlns="http://www.w3.org/2000/svg" title="Private" enable-background="new 0 0 16 16" viewBox="0 0 16 16">
  <path stroke="#BBB" d="m 8 14.8 l -8 -3 v 1.3 l 8 3 l 8 -3 v -1.3 l -8 3"/>
  <path stroke="#BBB" d="m 8 1 c 1.7 0 3 1.4 3 3 s -1.4 3 -3 3 s -3 -1.3 -3 -3 s 1.3 -3 3 -3 m 0 -1 c -2.2 0 -4 1.8 -4 4 s 1.8 4 4 4 s 4 -1.8 4 -4 s -1.8 -4 -4 -4 Z"/>
  <path stroke="#BBB" d="m 8 11.8 l -8 -3 v 1.4 l 8 3 l 8 -3 v -1.4 l -8 3"/>
  <rect style="fill:transparent !important;" x="0" y="0" width="100%" height="100%">
    <title>Private</title>
  </rect>
</svg>
