<?xml version="1.0"?>
<svg xmlns="http://www.w3.org/2000/svg" title="Recruitment Officer" enable-background="new 0 0 16 16"  viewBox="0 0 16 16">
  <path stroke="#FFD700" d="m8 12.8-8-3v3.2l8 3 8-3v-3.2z"/>
  <path stroke="#FFD700" d="m14.25 1.08a.34.34 0 0 0 -.47-.26 45.84 45.84 0 0 1 -9.78 3.27 1.71 1.71 0 1 0  .27 1.84c.47-.05.95-.09 1.42-.13v1.52a.55.55 0 0 0  .52.58l5.35.1a.55.55 0 0 0  .54-.56v-1.59a18 18 0 0 1 2.45.36.33.33 0 0 0  .45-.38zm-2.86 5.92c0 .31-.24.33-.53.32l-3.86-.1c-.29 0-.53 0-.52-.34v-1.12a35.19 35.19 0 0 1 4.91 0z"/>
    <rect style="fill:transparent !important;" x="0" y="0" width="100%" height="100%">
    <title>Recruitment Officer</title>
  </rect>
</svg>
